<svg xmlns="http://www.w3.org/2000/svg" viewBox="0 0 20 24" fill="none">
<rect x="0" y="0" width="3.2" height="3.2" rx="0.6" fill="#7c3aed" opacity="0.85"/>
<rect x="4" y="0" width="3.2" height="3.2" rx="0.6" fill="#7c3aed" opacity="0.85"/>
<rect x="8" y="0" width="3.2" height="3.2" rx="0.6" fill="#7c3aed" opacity="0.85"/>
<rect x="12" y="0" width="3.2" height="3.2" rx="0.6" fill="#7c3aed" opacity="0.85"/>
<rect x="16" y="0" width="3.2" height="3.2" rx="0.6" fill="#7c3aed" opacity="0.85"/>
<rect x="0" y="4" width="3.2" height="3.2" rx="0.6" fill="#7c3aed" opacity="0.85"/>
<rect x="4" y="4" width="3.2" height="3.2" rx="0.6" fill="#7c3aed" opacity="0.85"/>
<rect x="8" y="4" width="3.2" height="3.2" rx="0.6" fill="#7c3aed" opacity="0.85"/>
<rect x="12" y="4" width="3.2" height="3.2" rx="0.6" fill="#7c3aed" opacity="0.85"/>
<rect x="16" y="4" width="3.2" height="3.2" rx="0.6" fill="#7c3aed" opacity="0.85"/>
<rect x="0" y="8" width="3.2" height="3.2" rx="0.6" fill="#7c3aed" opacity="0.85"/>
<rect x="4" y="8" width="3.2" height="3.2" rx="0.6" fill="#7c3aed" opacity="0.85"/>
<rect x="8" y="8" width="3.2" height="3.2" rx="0.6" fill="#7c3aed" opacity="0.85"/>
<rect x="12" y="8" width="3.2" height="3.2" rx="0.6" fill="#7c3aed" opacity="0.85"/>
<rect x="16" y="8" width="3.2" height="3.2" rx="0.6" fill="#7c3aed" opacity="0.85"/>
<rect x="0" y="12" width="3.2" height="3.2" rx="0.6" fill="#7c3aed" opacity="0.85"/>
<rect x="4" y="12" width="3.2" height="3.2" rx="0.6" fill="#7c3aed" opacity="0.85"/>
<rect x="8" y="12" width="3.2" height="3.2" rx="0.6" fill="#7c3aed" opacity="0.85"/>
<rect x="12" y="12" width="3.2" height="3.2" rx="0.6" fill="#7c3aed" opacity="0.85"/>
<rect x="16" y="12" width="3.2" height="3.2" rx="0.6" fill="#7c3aed" opacity="0.85"/>
<rect x="0" y="16" width="3.2" height="3.2" rx="0.6" fill="#7c3aed" opacity="0.85"/>
<rect x="4" y="16" width="3.2" height="3.2" rx="0.6" fill="#7c3aed" opacity="0.85"/>
<rect x="8" y="16" width="3.2" height="3.2" rx="0.6" fill="#7c3aed" opacity="0.85"/>
<rect x="12" y="16" width="3.2" height="3.2" rx="0.6" fill="#7c3aed" opacity="0.85"/>
<rect x="16" y="16" width="3.2" height="3.2" rx="0.6" fill="#7c3aed" opacity="0.85"/>
<rect x="0" y="20" width="3.2" height="3.2" rx="0.6" fill="#7c3aed" opacity="0.85"/>
<rect x="4" y="20" width="3.2" height="3.2" rx="0.6" fill="#7c3aed" opacity="0.85"/>
<rect x="8" y="20" width="3.2" height="3.2" rx="0.6" fill="#7c3aed" opacity="0.85"/>
<rect x="12" y="20" width="3.2" height="3.2" rx="0.6" fill="#7c3aed" opacity="0.85"/>
<rect x="16" y="20" width="3.2" height="3.2" rx="0.6" fill="#7c3aed" opacity="0.85"/>
</svg>
