<svg xmlns="http://www.w3.org/2000/svg" viewBox="0 0 24 26" fill="none" stroke="#0e7490" stroke-width="1.6" stroke-linecap="round" stroke-linejoin="round">
<path d="M16 13V6C16 5.17 15.33 4.5 14.5 4.5S13 5.17 13 6V11"/>
<path d="M13 5V3.5C13 2.67 12.33 2 11.5 2S10 2.67 10 3.5V11"/>
<path d="M10 4V3C10 2.17 9.33 1.5 8.5 1.5S7 2.17 7 3V11"/>
<path d="M7 4.5V4C7 3.17 6.33 2.5 5.5 2.5S4 3.17 4 4V14C4 19.52 8.48 24 14 24C16.76 24 19 21.76 19 19V13C19 12.17 18.33 11.5 17.5 11.5S16 12.17 16 13"/>
</svg>
